<?xml version="1.0" encoding="utf-8"?>
<!-- Generator: Adobe Illustrator 22.1.0, SVG Export Plug-In . SVG Version: 6.00 Build 0)  -->
<svg version="1.1" id="Layer_1" xmlns="http://www.w3.org/2000/svg" xmlns:xlink="http://www.w3.org/1999/xlink" x="0px" y="0px"
	 viewBox="0 0 278.6 64" style="enable-background:new 0 0 278.6 64;" xml:space="preserve">
<style type="text/css">
	.st0{fill:#EC1C24;}
	.st1{fill:#FFFFFF;}
	.st2{fill:#005A7E;}
</style>
<g>
	<path class="st0" d="M93,48c-0.9,0.8-2.1,1.5-3.4,1.9c-1.3,0.5-2.7,0.7-4.1,0.7c-2.9,0-5.3-1-7.3-3.1c-2-2-3-4.7-3.1-7.8h24.7
		c0-3.8-1-6.9-3-9.4c-2.8-3.6-6.5-5.3-11.2-5.3c-4.5,0-8.2,1.7-10.9,5.2c-2.1,2.7-3.2,5.8-3.2,9.3c0,3.7,1.3,7,3.8,10
		c2.5,2.9,6,4.4,10.5,4.4c2,0,3.8-0.3,5.4-0.9c1.6-0.6,3-1.5,4.3-2.7c1.3-1.2,2.4-2.7,3.4-4.6l-3-1.6C95,45.9,94,47.2,93,48
		 M75.6,36.7c0.7-2.5,1.8-4.4,3.2-5.7c1.9-1.7,4.3-2.6,6.9-2.6c1.6,0,3.2,0.3,4.7,1c1.5,0.7,2.7,1.6,3.6,2.7
		c0.9,1.1,1.6,2.6,2.1,4.5H75.6z M109,29.7c-2.5,2.8-3.8,6.1-3.8,9.9c0,3.8,1.3,7.2,4,10.1c2.7,2.9,6.1,4.3,10.3,4.3
		c4.2,0,7.6-1.4,10.3-4.3c2.7-2.9,4-6.2,4-10.1c0-3.8-1.3-7.1-3.8-9.9c-2.8-3.1-6.3-4.6-10.5-4.6C115.3,25.1,111.8,26.6,109,29.7
		 M127.1,31.8c2.1,2.2,3.2,4.8,3.2,7.9c0,2-0.5,3.8-1.4,5.6c-1,1.7-2.3,3-3.9,4c-1.6,0.9-3.4,1.4-5.4,1.4c-2,0-3.8-0.5-5.4-1.4
		c-1.6-0.9-2.9-2.3-3.9-4c-1-1.7-1.4-3.6-1.4-5.6c0-3.1,1.1-5.7,3.2-7.9c2.1-2.2,4.6-3.3,7.6-3.3C122.4,28.5,124.9,29.6,127.1,31.8
		 M164,30.6c-1.6-2-3.4-3.4-5.1-4.2c-1.8-0.8-3.7-1.3-5.7-1.3c-2.5,0-4.8,0.6-7.1,1.9c-2.2,1.3-4,3-5.2,5.2
		c-1.3,2.2-1.9,4.6-1.9,7.1c0,2.5,0.6,4.9,1.8,7c1.2,2.1,2.9,3.8,5.2,5.1c2.2,1.3,4.6,1.9,7.1,1.9c2.2,0,4.2-0.5,6.1-1.4
		c1.9-0.9,3.5-2.2,4.9-3.9v1.4c0,3-0.4,5.2-1.1,6.6c-0.7,1.4-1.9,2.5-3.5,3.4c-1.7,0.9-3.7,1.3-6.1,1.3c-2.4,0-4.5-0.4-6.1-1.3
		c-1.6-0.9-3-2.2-4-4h-3.8c1,2.2,2.1,3.8,3.3,4.9c1.2,1.1,2.7,2,4.6,2.7c1.9,0.7,4,1,6.3,1c3.2,0,6-0.7,8.3-2
		c2.3-1.4,3.9-3.3,4.8-5.8c0.7-1.8,1-4.6,1-8.5V25.8H164V30.6z M159,29.9c1.7,0.9,3,2.2,3.9,3.9c0.9,1.6,1.4,3.5,1.4,5.5
		c0,3.2-1,5.7-3,7.7c-2,2-4.6,2.9-7.8,2.9c-3.2,0-5.8-1-7.9-3c-2-2-3-4.5-3-7.5c0-2,0.5-3.8,1.5-5.5c1-1.7,2.3-3,4-4
		c1.7-1,3.6-1.4,5.6-1.4C155.5,28.5,157.3,29,159,29.9 M173.8,53.2h3.6V44c0-4.8,0.2-7.9,0.7-9.5c0.6-2,1.4-3.5,2.5-4.5
		c1.1-1,2.2-1.5,3.4-1.5c0.5,0,1.1,0.2,1.9,0.5l1.8-3c-1.1-0.6-2.2-0.9-3.1-0.9c-1.3,0-2.5,0.4-3.7,1.2c-1.2,0.8-2.3,2-3.4,3.5v-4
		h-3.6V53.2z M214.6,25.8v5c-1.4-1.9-3-3.4-4.8-4.3c-1.8-1-3.9-1.4-6.1-1.4c-3.9,0-7.3,1.4-10,4.2c-2.8,2.8-4.2,6.2-4.2,10.1
		c0,4,1.4,7.5,4.1,10.3c2.8,2.8,6.1,4.2,10,4.2c2.2,0,4.2-0.5,6-1.4c1.8-0.9,3.5-2.3,5-4.1v4.7h3.5V25.8H214.6z M211.7,31.7
		c2.1,2.1,3.1,4.8,3.1,8c0,2.1-0.5,4-1.4,5.6c-0.9,1.7-2.3,3-4,4c-1.7,1-3.6,1.5-5.5,1.5c-1.9,0-3.7-0.5-5.4-1.5c-1.7-1-3-2.4-4-4.1
		c-1-1.8-1.5-3.6-1.5-5.5c0-1.9,0.5-3.8,1.5-5.5c1-1.7,2.3-3.1,4-4.1c1.7-1,3.5-1.4,5.4-1.4C207,28.5,209.6,29.5,211.7,31.7
		 M241.4,16.4c-1.4-1.3-3.2-1.9-5.4-1.9c-1.8,0-3.3,0.4-4.5,1.2c-1.3,0.8-2.2,1.8-2.8,3.1c-0.6,1.3-0.9,3.2-0.9,5.9v1.2h-3.6v3.1
		h3.6v24.4h3.6V28.9h5.7v-3.1h-5.7v-1.2c0-2,0.1-3.4,0.5-4.2c0.3-0.8,0.8-1.4,1.5-1.8c0.7-0.5,1.6-0.7,2.6-0.7
		c2.3,0,3.7,1.2,4.2,3.5h3.6C243.6,19.3,242.9,17.7,241.4,16.4 M240.2,53.2h3.6V25.8h-3.6V53.2z M275.1,25.8v5
		c-1.4-1.9-3-3.4-4.8-4.3c-1.8-1-3.9-1.4-6.1-1.4c-3.9,0-7.2,1.4-10,4.2c-2.8,2.8-4.2,6.2-4.2,10.1c0,4,1.4,7.5,4.1,10.3
		c2.8,2.8,6.1,4.2,10,4.2c2.2,0,4.2-0.5,6-1.4c1.8-0.9,3.5-2.3,5-4.1v4.7h3.5V25.8H275.1z M272.2,31.7c2.1,2.1,3.1,4.8,3.1,8
		c0,2.1-0.5,4-1.4,5.6c-0.9,1.7-2.3,3-4,4c-1.7,1-3.6,1.5-5.5,1.5c-1.9,0-3.7-0.5-5.4-1.5c-1.7-1-3-2.4-4-4.1
		c-1-1.8-1.5-3.6-1.5-5.5c0-1.9,0.5-3.8,1.5-5.5c1-1.7,2.3-3.1,4-4.1c1.7-1,3.5-1.4,5.4-1.4C267.5,28.5,270.1,29.5,272.2,31.7"/>
	<path class="st0" d="M25.5,4v6.3H11.2v33.9H4V64h62.8V4H25.5z M51.4,49.1c-3.4,3.4-7.9,5.1-13.5,5.1c-6.9,0-12.3-2.3-16.3-7
		c-3.1-3.6-4.6-7.8-4.6-12.5c0-3.5,0.9-6.8,2.7-9.8c1.8-3,4.2-5.4,7.3-7.1c3.1-1.7,6.6-2.6,10.5-2.6c3.1,0,6.1,0.6,8.9,1.7
		c2.8,1.1,5.5,3,8.1,5.5l-2.9,2.7c-2.1-2-4.3-3.6-6.8-4.6c-2.5-1.1-4.9-1.6-7.2-1.6c-2.9,0-5.7,0.7-8.3,2.1
		c-2.6,1.4-4.7,3.4-6.1,5.8c-1.4,2.4-2.2,5-2.2,7.8c0,2.8,0.7,5.5,2.2,8c1.5,2.5,3.6,4.5,6.2,5.9c2.6,1.4,5.5,2.2,8.7,2.2
		c3.8,0,7.1-1.1,9.7-3.2c2.6-2.2,4.2-4.9,4.7-8.4H40.5v-3.6h16C56.5,41.2,54.8,45.7,51.4,49.1z"/>
	<path class="st1" d="M56.5,35.4c0,5.7-1.7,10.3-5.1,13.7c-3.4,3.4-7.9,5.1-13.5,5.1c-6.9,0-12.3-2.3-16.3-7
		c-3.1-3.6-4.6-7.8-4.6-12.5c0-3.5,0.9-6.8,2.7-9.8c1.8-3,4.2-5.4,7.3-7.1c3.1-1.7,6.6-2.6,10.5-2.6c3.1,0,6.1,0.6,8.9,1.7
		c2.8,1.1,5.5,3,8.1,5.5l-2.9,2.7c-2.1-2-4.3-3.6-6.8-4.6c-2.5-1.1-4.9-1.6-7.2-1.6c-2.9,0-5.7,0.7-8.3,2.1
		c-2.6,1.4-4.7,3.4-6.1,5.8c-1.4,2.4-2.2,5-2.2,7.8c0,2.8,0.7,5.5,2.2,8c1.5,2.5,3.6,4.5,6.2,5.9c2.6,1.4,5.5,2.2,8.7,2.2
		c3.8,0,7.1-1.1,9.7-3.2c2.6-2.2,4.2-4.9,4.7-8.4H40.5v-3.6H56.5z"/>
	<polygon class="st2" points="0,0 0,42.1 4.1,42.1 4.1,4.1 23.7,4.1 23.7,0 	"/>
</g>
</svg>
